Coordinates
version=1
nRows=36
nColumns=34
inDegrees=no

Units are S.I. units (second, meters, Newtons, ...)
If the header above contains a line with 'inDegrees', this indicates whether rotational values are in degrees (yes) or radians (no).

endheader
time	pelvis_tilt	pelvis_list	pelvis_rotation	pelvis_tx	pelvis_ty	pelvis_tz	hip_flexion_r	hip_adduction_r	hip_rotation_r	knee_angle_r	ankle_angle_r	subtalar_angle_r	mtp_angle_r	hip_flexion_l	hip_adduction_l	hip_rotation_l	knee_angle_l	ankle_angle_l	subtalar_angle_l	mtp_angle_l	lumbar_extension	lumbar_bending	lumbar_rotation	arm_flex_r	arm_add_r	arm_rot_r	elbow_flex_r	pro_sup_r	arm_flex_l	arm_add_l	arm_rot_l	elbow_flex_l	pro_sup_l
0	0.00338232	-0.00136812	0.0613634	-0.170786	0.876931	-0.296165	0.425579	0.0171953	-0.149259	0.0583939	0.137015	-0.00306283	-0.00245432	-0.274257	-0.0129635	-0.338639	0.186466	0.534909	0.527807	-0.00971279	-0.132886	0.0476361	-0.158539	-0.331446	-0.150008	-0.316333	0.406039	1.67391	0.187483	-0.217303	-0.209328	0.869118	1.83938
0.01	0.00535947	-0.0203763	0.0644536	-0.154105	0.883996	-0.295207	0.414504	0.0388339	-0.144298	0.0656655	0.100875	-0.0553838	-0.00248197	-0.295281	-0.0380611	-0.348493	0.188182	0.535497	0.537298	-0.00966648	-0.127439	0.0693591	-0.161478	-0.33554	-0.153806	-0.316126	0.391412	1.67076	0.180222	-0.210572	-0.211855	0.872254	1.84047
0.02	0.00675403	-0.0389155	0.0665552	-0.137545	0.890248	-0.294199	0.404885	0.0597271	-0.142036	0.0749433	0.067345	-0.100298	-0.00250963	-0.31317	-0.0626662	-0.355166	0.194093	0.531173	0.540152	-0.00962017	-0.121421	0.0905762	-0.163619	-0.338608	-0.157313	-0.315946	0.377262	1.66669	0.172267	-0.203385	-0.21447	0.87364	1.84125
0.03	0.00754571	-0.0569684	0.0676644	-0.121121	0.895754	-0.293131	0.396716	0.0798646	-0.142323	0.086192	0.03651	-0.137963	-0.00253728	-0.327831	-0.0867606	-0.358646	0.204317	0.521902	0.536321	-0.00957386	-0.114831	0.111257	-0.16496	-0.340641	-0.160522	-0.315792	0.363623	1.66175	0.163625	-0.195747	-0.217174	0.873275	1.84174
0.04	0.00767666	-0.0744556	0.067776	-0.104856	0.900582	-0.291996	0.389988	0.0991951	-0.144754	0.0993332	0.00864066	-0.168813	-0.00256494	-0.338984	-0.110264	-0.358859	0.219177	0.50756	0.525645	-0.00952753	-0.10766	0.131299	-0.165491	-0.341619	-0.163415	-0.315662	0.350599	1.65601	0.154317	-0.187677	-0.219974	0.871161	1.84197
0.05	0.00704476	-0.0912077	0.0668984	-0.0887831	0.904803	-0.290787	0.384696	0.117596	-0.148657	0.114244	-0.0157731	-0.193593	-0.0025926	-0.346133	-0.132991	-0.355631	0.239206	0.487901	0.507834	-0.0094812	-0.0998856	0.150496	-0.165213	-0.341521	-0.165954	-0.315568	0.338395	1.64967	0.144384	-0.179219	-0.222873	0.867315	1.84199
0.06	0.00551694	-0.106971	0.0650823	-0.0729428	0.908485	-0.289504	0.380829	0.13487	-0.153174	0.130731	-0.0360902	-0.213294	-0.00262026	-0.3486	-0.154644	-0.348681	0.265076	0.462574	0.482535	-0.00943486	-0.0914767	0.168539	-0.16415	-0.340331	-0.168082	-0.315541	0.327315	1.64306	0.13389	-0.170445	-0.225868	0.86178	1.84191
0.07	0.00296622	-0.121453	0.0624576	-0.0573793	0.911696	-0.288153	0.378316	0.150784	-0.157411	0.148475	-0.0516676	-0.229013	-0.00264792	-0.345624	-0.174855	-0.337674	0.29747	0.431189	0.449498	-0.00938852	-0.0824085	0.185067	-0.162382	-0.338062	-0.169725	-0.315648	0.317743	1.6366	0.12292	-0.161453	-0.228939	0.854635	1.84186
0.08	-0.00067152	-0.134393	0.0592653	-0.0421331	0.914501	-0.286755	0.376962	0.165125	-0.160629	0.166975	-0.0620299	-0.241767	-0.00267558	-0.336522	-0.19327	-0.322321	0.33692	0.393439	0.408811	-0.00934216	-0.0726951	0.199743	-0.160063	-0.334761	-0.170801	-0.315997	0.31011	1.63078	0.111583	-0.152361	-0.232035	0.845991	1.842
0.09	-0.00533861	-0.145639	0.0558702	-0.0272364	0.916961	-0.285339	0.376391	0.177766	-0.162421	0.185525	-0.0669988	-0.252301	-0.00270325	-0.320857	-0.209634	-0.302493	0.383641	0.34926	0.361121	-0.0092958	-0.0624297	0.212345	-0.157423	-0.330525	-0.171238	-0.316727	0.304851	1.62608	0.100008	-0.143293	-0.235067	0.835985	1.84249
0.1	-0.0108274	-0.155185	0.0527384	-0.0127092	0.919138	-0.283942	0.37603	0.188699	-0.162825	0.203268	-0.0667383	-0.260954	-0.00273092	-0.29857	-0.223846	-0.278314	0.437412	0.299004	0.307769	-0.00924943	-0.0518086	0.222815	-0.154747	-0.325489	-0.170984	-0.317996	0.302359	1.62288	0.0883415	-0.134371	-0.237903	0.824768	1.84349
0.11	-0.0168262	-0.163157	0.0503613	0.00144092	0.921082	-0.282604	0.375216	0.198002	-0.162313	0.219324	-0.0617144	-0.267624	-0.00275859	-0.269997	-0.235934	-0.250204	0.49753	0.243601	0.250781	-0.00920305	-0.0411021	0.231248	-0.152311	-0.319823	-0.170025	-0.319928	0.302942	1.6214	0.0767442	-0.125712	-0.24037	0.812492	1.84513
0.12	-0.0230826	-0.16971	0.0491131	0.0152141	0.922833	-0.281355	0.373462	0.205746	-0.161635	0.233011	-0.0525974	-0.271876	-0.00278626	-0.235676	-0.245939	-0.218856	0.562891	0.184686	0.192659	-0.00915666	-0.0305245	0.237779	-0.150283	-0.313693	-0.168385	-0.322562	0.30678	1.62163	0.0653809	-0.117433	-0.242266	0.799295	1.8475
0.13	-0.0294217	-0.175001	0.0491958	0.0286145	0.924413	-0.280213	0.37051	0.211972	-0.16167	0.243949	-0.0401455	-0.273079	-0.00281393	-0.196315	-0.253889	-0.185191	0.63208	0.124592	0.136137	-0.00911026	-0.0202336	0.24255	-0.148689	-0.307242	-0.166138	-0.325795	0.313899	1.6233	0.0544153	-0.109656	-0.243382	0.785304	1.8506
0.14	-0.0357054	-0.179174	0.050638	0.0416521	0.925842	-0.279183	0.366278	0.21671	-0.163268	0.252079	-0.0251037	-0.270576	-0.0028416	-0.152782	-0.259817	-0.150267	0.703472	0.0662089	0.0838655	-0.00906386	-0.0103837	0.245716	-0.147418	-0.300564	-0.163412	-0.32936	0.324163	1.6259	0.0440036	-0.102494	-0.243515	0.770627	1.85439
0.15	-0.0417861	-0.182364	0.05332	0.0543383	0.927134	-0.278264	0.360768	0.220011	-0.16711	0.257611	-0.0081399	-0.263849	-0.00286927	-0.106091	-0.263785	-0.115192	0.775361	0.0126899	0.038087	-0.00901744	-0.00117353	0.24744	-0.146253	-0.293684	-0.160385	-0.332814	0.337282	1.62875	0.0342847	-0.0960527	-0.242499	0.755361	1.85873
0.16	-0.0474847	-0.184697	0.0570109	0.0666882	0.928306	-0.277443	0.354002	0.221972	-0.173592	0.260937	0.0101769	-0.252642	-0.00289695	-0.0573381	-0.265899	-0.0810286	0.846091	-0.0329356	0.000342212	-0.00897101	0.00713557	0.247902	-0.144914	-0.286545	-0.157278	-0.335566	0.352835	1.63112	0.0253674	-0.0904159	-0.240231	0.739608	1.86341
0.17	-0.0525976	-0.186288	0.0614059	0.0787231	0.929385	-0.276703	0.345976	0.222755	-0.182764	0.262519	0.0293677	-0.237047	-0.00292462	-0.00762234	-0.26632	-0.0487249	0.91416	-0.068194	-0.028728	-0.00892457	0.0142372	0.247286	-0.143104	-0.279016	-0.154341	-0.33693	0.370302	1.63233	0.0173144	-0.0856382	-0.236692	0.723481	1.86819
0.18	-0.0569255	-0.187236	0.0661629	0.0904673	0.930395	-0.276021	0.33665	0.222586	-0.194326	0.262792	0.0490205	-0.217506	-0.0029523	0.0420447	-0.265253	-0.0190631	0.978297	-0.0915449	-0.0494472	-0.00887812	0.0198218	0.245775	-0.140545	-0.270902	-0.151823	-0.336202	0.389106	1.63187	0.0101276	-0.0817375	-0.231973	0.707122	1.87281
0.19	-0.0603085	-0.187615	0.0709346	0.101947	0.931359	-0.275371	0.32596	0.221748	-0.20768	0.262087	0.0687699	-0.194763	-0.00297997	0.0908054	-0.262937	0.00736999	1.03749	-0.10262	-0.0630205	-0.00883165	0.0236264	0.24354	-0.137008	-0.261969	-0.149957	-0.332753	0.408663	1.62948	0.00373784	-0.0786906	-0.226284	0.690707	1.87703
0.2	-0.062646	-0.18746	0.0753923	0.113195	0.932299	-0.274729	0.313846	0.220542	-0.222039	0.260607	0.0882929	-0.169746	-0.00300764	0.138001	-0.259619	0.0301938	1.09098	-0.102267	-0.0713286	-0.00878516	0.025487	0.240732	-0.132336	-0.251977	-0.148929	-0.326134	0.428426	1.62519	-0.00199694	-0.0764335	-0.219954	0.674443	1.8807
0.21	-0.0639059	-0.186796	0.0792409	0.124245	0.933226	-0.274067	0.300286	0.219243	-0.236552	0.25844	0.107322	-0.143429	-0.00303532	0.183189	-0.255519	0.0492276	1.13823	-0.0923819	-0.0766366	-0.00873865	0.0253769	0.237455	-0.12645	-0.24072	-0.148861	-0.316159	0.447935	1.61927	-0.00728393	-0.0748661	-0.213411	0.658559	1.88374
0.22	-0.0641478	-0.185635	0.0822425	0.135135	0.934145	-0.273363	0.285334	0.218048	-0.250445	0.255609	0.125666	-0.116688	-0.00306299	0.226122	-0.250806	0.0644702	1.17888	-0.0755804	-0.081272	-0.00869212	0.0234154	0.233762	-0.119354	-0.228058	-0.149801	-0.302959	0.466849	1.61219	-0.0123789	-0.0738622	-0.207155	0.643283	1.88616
0.23	-0.0635251	-0.183967	0.084229	0.145896	0.93505	-0.272605	0.269139	0.217047	-0.263125	0.252143	0.143231	-0.0901914	-0.00309067	0.266726	-0.24558	0.0760691	1.21274	-0.0547662	-0.0873236	-0.00864556	0.01986	0.229657	-0.111125	-0.213939	-0.151721	-0.28698	0.484964	1.60449	-0.0175623	-0.0732826	-0.201709	0.628818	1.88804
0.24	-0.0622696	-0.181765	0.0851059	0.156562	0.935927	-0.271787	0.251959	0.216206	-0.274242	0.24813	0.160026	-0.0643529	-0.00311836	0.305056	-0.239878	0.0842811	1.23969	-0.0327033	-0.0964027	-0.00859899	0.0150811	0.225108	-0.101906	-0.198408	-0.154522	-0.268937	0.502215	1.59673	-0.0231115	-0.072988	-0.197572	0.615329	1.8895
0.25	-0.0606677	-0.178991	0.0848477	0.16716	0.936754	-0.270915	0.234157	0.215376	-0.283692	0.243757	0.176148	-0.0393443	-0.00314604	0.341257	-0.233687	0.0894301	1.25972	-0.0116661	-0.109496	-0.00855239	0.00952263	0.22006	-0.0918889	-0.181597	-0.158059	-0.249711	0.518655	1.58935	-0.0292745	-0.0728519	-0.195174	0.60292	1.89065
0.26	-0.059029	-0.175611	0.0834871	0.177712	0.937505	-0.27	0.216169	0.214333	-0.291588	0.239303	0.191756	-0.0151508	-0.00317372	0.375526	-0.226971	0.091867	1.27284	0.00677609	-0.126916	-0.00850577	0.00365459	0.214458	-0.0812975	-0.163701	-0.162158	-0.230233	0.534415	1.58269	-0.0362465	-0.072769	-0.194838	0.591633	1.89154
0.27	-0.0576512	-0.171606	0.0811016	0.188233	0.938153	-0.269058	0.198461	0.212821	-0.298187	0.235117	0.207038	0.00835422	-0.00320141	0.408066	-0.219706	0.0919389	1.27913	0.0218237	-0.148339	-0.00845913	-0.0020777	0.208265	-0.0703689	-0.144945	-0.166637	-0.211361	0.549659	1.57697	-0.0441545	-0.0726608	-0.196759	0.581446	1.89217
0.28	-0.0567859	-0.166981	0.0777996	0.198737	0.938673	-0.268107	0.181469	0.210604	-0.303823	0.231557	0.22217	0.0313338	-0.0032291	0.439051	-0.211901	0.0899672	1.2787	0.0333751	-0.17292	-0.00841247	-0.00730036	0.201483	-0.0593347	-0.125554	-0.17133	-0.193783	0.564543	1.57226	-0.0530484	-0.0724776	-0.200993	0.572279	1.89249
0.29	-0.056609	-0.16177	0.0737082	0.209228	0.939044	-0.267163	0.165539	0.207509	-0.308837	0.228933	0.237291	0.0539315	-0.00325679	0.468591	-0.20362	0.0862352	1.27166	0.0418607	-0.19944	-0.00836578	-0.011748	0.194151	-0.0484028	-0.105727	-0.176089	-0.177963	0.579185	1.56853	-0.062901	-0.0721975	-0.207462	0.564003	1.89241
0.3	-0.0572011	-0.156032	0.0689631	0.219714	0.939256	-0.26624	0.150878	0.203451	-0.313527	0.227452	0.252482	0.0762453	-0.00328448	0.496702	-0.194977	0.0809842	1.25815	0.0480329	-0.226478	-0.00831907	-0.0152849	0.186341	-0.0377427	-0.0856285	-0.180794	-0.164128	0.593653	1.56571	-0.0736142	-0.0718246	-0.215967	0.556454	1.89185
0.31	-0.0585421	-0.149842	0.0637009	0.230197	0.939303	-0.265347	0.13753	0.198427	-0.318129	0.22719	0.267766	0.0983321	-0.00331217	0.523295	-0.186121	0.0744123	1.23832	0.0527625	-0.252559	-0.00827234	-0.0179072	0.178148	-0.0274742	-0.0653885	-0.18535	-0.152297	0.607974	1.56369	-0.0850316	-0.0713853	-0.226209	0.549449	1.89077
0.32	-0.06052	-0.143279	0.0580514	0.24068	0.939189	-0.264492	0.125374	0.192508	-0.32282	0.228088	0.283115	0.120237	-0.00333987	0.54818	-0.177218	0.0666761	1.21234	0.0568778	-0.276276	-0.00822559	-0.019728	0.169667	-0.0176637	-0.0451151	-0.18968	-0.142332	0.622154	1.56239	-0.0969558	-0.0709237	-0.237817	0.542802	1.88916
0.33	-0.062953	-0.136414	0.0521329	0.251168	0.938923	-0.263679	0.114156	0.185801	-0.327732	0.229976	0.298468	0.14203	-0.00336757	0.571088	-0.168416	0.0578906	1.18042	0.0610664	-0.296365	-0.00817881	-0.0209472	0.160978	-0.0083253	-0.0249093	-0.193725	-0.134007	0.636195	1.56181	-0.109168	-0.0704956	-0.250374	0.536341	1.88706
0.34	-0.0656191	-0.129302	0.046046	0.261673	0.93852	-0.262909	0.103534	0.178419	-0.33298	0.23262	0.313749	0.163831	-0.00339526	0.591703	-0.159834	0.0481289	1.1428	0.0658411	-0.311737	-0.00813201	-0.0218146	0.15214	0.000571028	-0.00487865	-0.197439	-0.127056	0.650119	1.56202	-0.121451	-0.0701625	-0.26345	0.529919	1.88454
0.35	-0.0682859	-0.121979	0.0398682	0.272204	0.937995	-0.262181	0.0931312	0.170464	-0.338675	0.235767	0.328882	0.185814	-0.00342296	0.609701	-0.151547	0.0374199	1.09975	0.0715554	-0.321474	-0.00808519	-0.0225888	0.143189	0.00908779	0.0148555	-0.200792	-0.121222	0.663969	1.56314	-0.133603	-0.0699829	-0.276628	0.523426	1.88164
